<?xml version="1.0" encoding="UTF-8"?>
<svg width="288px" height="288px" viewBox="0 0 288 288" version="1.1" xmlns="http://www.w3.org/2000/svg" xmlns:xlink="http://www.w3.org/1999/xlink">
    <title>Group</title>
    <g id="Page-1" stroke="none" stroke-width="1" fill="none" fill-rule="evenodd">
        <g id="Group" transform="translate(0.010000, 0.960000)" fill="#FFFFFF" fill-rule="nonzero">
            <path d="M263.24,263.29 L23.52,263.29 L23.52,23.52 L263.24,23.52 L263.24,42.74 C263.24,45.2418499 265.26815,47.27 267.77,47.27 L282.2,47.27 C284.70185,47.27 286.73,45.2418499 286.73,42.74 L286.73,11.74 C286.73,5.25617704 281.473823,0 274.99,0 L11.74,0 C5.25617704,0 0,5.25617704 0,11.74 L0,274.99 C0,281.473823 5.25617704,286.73 11.74,286.73 L274.98,286.73 C281.463823,286.73 286.72,281.473823 286.72,274.99 L286.72,243.99 C286.72,241.48815 284.69185,239.46 282.19,239.46 L267.77,239.46 C265.26815,239.46 263.24,241.48815 263.24,243.99 L263.24,263.21 L263.24,263.29 Z" id="Path"></path>
            <path d="M180.52,83.62 C183.0934,83.6470622 185.172938,85.7266002 185.2,88.3 L185.2,101.82 C185.172938,104.3934 183.0934,106.472938 180.52,106.5 L165.62,106.5 C163.0466,106.472938 160.967062,104.3934 160.94,101.82 L160.94,88.3 C160.967062,85.7266002 163.0466,83.6470622 165.62,83.62 L180.52,83.62 L180.52,83.62 Z M184.33,201.97 C184.302938,204.5434 182.2234,206.622938 179.65,206.65 L166.52,206.65 C163.948825,206.617654 161.872346,204.541175 161.84,201.97 L161.84,121.22 C161.872346,118.648825 163.948825,116.572346 166.52,116.54 L179.69,116.54 C182.2634,116.567062 184.342938,118.6466 184.37,121.22 L184.37,201.97 L184.33,201.97 Z" id="Shape"></path>
            <path d="M237.74,114.81 C240.971731,114.759339 244.197937,115.095052 247.35,115.81 C249.917879,116.412188 252.41504,117.28368 254.8,118.41 C256.741196,119.327976 258.572754,120.461797 260.26,121.79 C261.562639,122.816497 262.779956,123.946862 263.9,125.17 L263.9,88.3 C263.932346,85.7288246 266.008825,83.6523457 268.58,83.62 L281.75,83.62 C284.3234,83.6470622 286.402938,85.7266002 286.43,88.3 L286.43,201.97 C286.402938,204.5434 284.3234,206.622938 281.75,206.65 L268.59,206.65 C266.018825,206.617654 263.942346,204.541175 263.91,201.97 L263.91,197.97 C262.790143,199.193323 261.572811,200.323704 260.27,201.35 C258.582901,202.678412 256.751318,203.812249 254.81,204.73 C252.425096,205.856458 249.92792,206.727955 247.36,207.33 C244.207968,208.045137 240.981739,208.380852 237.75,208.33 C232.334613,208.407302 226.972618,207.251464 222.07,204.95 C217.498929,202.798353 213.415481,199.735767 210.07,195.95 C206.72436,192.110082 204.083744,187.709055 202.27,182.95 C200.367268,178.047358 199.286094,172.864483 199.07,167.61 C198.956667,165.876667 198.9,163.856667 198.9,161.55 C198.9,159.243333 198.956667,157.22 199.07,155.48 C199.286821,150.225607 200.36797,145.042849 202.27,140.14 C204.085258,135.38168 206.725721,130.980907 210.07,127.14 C213.416246,123.355063 217.499511,120.292614 222.07,118.14 C226.973622,115.857248 232.331848,114.718582 237.74,114.81 Z M221.62,156.74 C221.271513,159.963943 221.271513,163.216057 221.62,166.44 C222.286667,173.953333 224.596667,179.353333 228.55,182.64 C232.587091,185.973471 237.696645,187.72877 242.93,187.58 C248.151698,187.743798 253.248042,185.96186 257.23,182.58 C261.096667,179.246667 263.32,174.453333 263.9,168.2 C264.365093,163.822318 264.365093,159.407682 263.9,155.03 C263.32,149.03 261.096667,144.293333 257.23,140.82 C253.298988,137.329657 248.184792,135.469949 242.93,135.62 C237.68783,135.462018 232.56681,137.21404 228.52,140.55 C224.62,143.836667 222.323333,149.236667 221.63,156.75 L221.62,156.74 Z" id="Shape"></path>
        </g>
    </g>
</svg>